<?xml version="1.0" encoding="UTF-8"?><svg id="Layer_1" xmlns="http://www.w3.org/2000/svg" viewBox="0 0 1000 221.66"><rect x=".19" y="118.22" width="998.49" height="18.63" fill="#cf0"/><path d="M51.69,0h33.37c35.56,0,51.69,19.39,51.69,48.88v63.54h-38.29v-21.18h-60.17v21.18H0v-63.54C0,19.39,16.14,0,51.69,0ZM38.29,58.65h60.17v-9.77c0-6.52-3.28-13.03-13.54-13.03h-33.1c-10.26,0-13.54,6.52-13.54,13.03v9.77Z" fill="#f7f8f5"/><path d="M252.32,24.44v87.98h-63.45c-32,0-46.63-17.6-46.63-43.99V24.44h35.56v43.99c0,5.86,3.15,13.03,12.45,13.03h26.53V24.44h35.56Z" fill="#f7f8f5"/><path d="M257.79,67.88V23.89L279.67,0h13.68v23.89h50.6v30.96h-50.6v13.03c0,5.86,3.15,13.03,12.45,13.03h38.15v30.95h-39.52c-32,0-46.63-17.6-46.63-43.99Z" fill="#f7f8f5"/><path d="M393.32,24.44h31.18c32,0,46.63,19.71,46.63,43.99,0,26.39-14.63,43.99-46.63,43.99h-31.18c-32,0-46.63-17.6-46.63-43.99,0-24.28,14.63-43.99,46.63-43.99ZM382.38,68.43c0,5.86,3.01,13.03,12.31,13.03h28.45c9.3,0,12.31-7.17,12.31-13.03s-3.01-13.03-12.31-13.03h-28.45c-9.3,0-12.31,7.17-12.31,13.03Z" fill="#f7f8f5"/><path d="M517.64,112.42V36.83h-50.6V0h139.49v36.83h-50.6v75.58h-38.29Z" fill="#f7f8f5"/><path d="M640.72,112.42h-35.56v-43.99c0-26.39,14.63-43.99,46.63-43.99h29.95v30.96h-28.58c-9.3,0-12.45,7.17-12.45,13.03v43.99Z" fill="#f7f8f5"/><path d="M795.95,24.44v87.98h-63.45c-32,0-46.63-17.6-46.63-43.99V24.44h35.56v43.99c0,5.86,3.15,13.03,12.45,13.03h26.53V24.44h35.56Z" fill="#f7f8f5"/><path d="M801.15,112.42v-30.95h70.7c3.15,0,4.24-1.79,4.24-3.26s-1.09-3.26-4.24-3.26h-38.7c-13.54,0-33.1-2.93-33.1-25.58s17.78-24.93,33.1-24.93h73.98v30.96h-70.57c-3.28,0-4.38,1.79-4.38,3.26s1.09,3.26,4.38,3.26h38.7c13.54,0,32.96,3.1,32.96,25.74s-17.64,24.76-32.96,24.76h-74.12Z" fill="#f7f8f5"/><path d="M912.33,67.88V23.89l21.88-23.89h13.68v23.89h50.6v30.96h-50.6v13.03c0,5.86,3.15,13.03,12.45,13.03h38.15v30.95h-39.52c-32,0-46.63-17.6-46.63-43.99Z" fill="#f7f8f5"/><path d="M110.14,0h162.73l-17.03,18.63h-121.09c-6.5-10.27-10.54-14.81-24.61-18.63Z" fill="#cf0"/><rect x="298.68" width="163.03" height="18.63" fill="#cf0"/><polygon points="611.86 0 927.04 0 910.01 18.63 611.86 18.63 611.86 0" fill="#cf0"/><rect x="953.22" width="45.27" height="18.63" fill="#cf0"/><path d="M.87,155.68h18.61c19.8,0,32.84,9.65,32.84,32.15s-13.04,32.64-31.95,32.64H.87v-64.79ZM18.58,208.03c10.45,0,17.91-4.88,17.91-20.2s-7.46-19.71-17.91-19.71h-2.19v39.91h2.19Z" fill="#f7f8f5"/><path d="M79.99,155.68h41v12.94h-25.48v12.14h21.8v12.94h-21.8v13.83h26.47v12.94h-42v-64.79Z" fill="#f7f8f5"/><path d="M162.4,155.68h18.51l20.2,64.79h-16.32l-3.78-14.93h-19.21l-3.78,14.93h-15.82l20.2-64.79ZM164.78,193.6h13.24l-1.39-5.57c-1.69-6.37-3.38-14.03-5.08-20.8h-.4c-1.59,6.77-3.28,14.43-4.97,20.8l-1.39,5.57Z" fill="#f7f8f5"/><path d="M223.5,155.68h15.53v51.85h25.18v12.94h-40.7v-64.79Z" fill="#f7f8f5"/><path d="M291.18,155.68h41v12.94h-25.48v12.14h21.8v12.94h-21.8v13.83h26.47v12.94h-42v-64.79Z" fill="#f7f8f5"/><path d="M361.65,155.68h23.79c13.73,0,25.28,4.78,25.28,20.4,0,9.45-4.48,15.52-11.14,18.71l14.43,25.68h-17.32l-11.94-22.79h-7.56v22.79h-15.53v-64.79ZM384.24,185.44c7.36,0,11.35-3.18,11.35-9.35s-3.98-8.16-11.35-8.16h-7.07v17.52h7.07Z" fill="#f7f8f5"/><path d="M486.45,155.68h18.51l20.2,64.79h-16.32l-3.78-14.93h-19.21l-3.78,14.93h-15.82l20.2-64.79ZM488.84,193.6h13.24l-1.39-5.57c-1.69-6.37-3.38-14.03-5.08-20.8h-.4c-1.59,6.77-3.28,14.43-4.97,20.8l-1.39,5.57Z" fill="#f7f8f5"/><path d="M547.56,155.68h15.53v51.85h25.18v12.94h-40.7v-64.79Z" fill="#f7f8f5"/><path d="M615.24,155.68h15.53v51.85h25.18v12.94h-40.7v-64.79Z" fill="#f7f8f5"/><path d="M682.91,155.68h15.53v64.79h-15.53v-64.79Z" fill="#f7f8f5"/><path d="M741.04,155.68h18.51l20.2,64.79h-16.32l-3.78-14.93h-19.21l-3.78,14.93h-15.82l20.2-64.79ZM743.42,193.6h13.24l-1.39-5.57c-1.69-6.37-3.38-14.03-5.08-20.8h-.4c-1.59,6.77-3.28,14.43-4.97,20.8l-1.39,5.57Z" fill="#f7f8f5"/><path d="M802.15,155.68h16.02l15.92,31.05c2.29,4.38,4.38,9.55,6.37,14.63h.4c-.8-6.97-1.99-16.22-1.99-23.89v-21.79h14.63v64.79h-15.92l-16.02-31.05c-2.19-4.38-4.28-9.55-6.27-14.63h-.4c.8,7.16,1.99,16.12,1.99,23.89v21.79h-14.73v-64.79Z" fill="#f7f8f5"/><path d="M881.27,188.52c0-21.6,14.53-34.04,30.85-34.04,8.46,0,15.23,3.78,19.71,8.46l-8.16,9.36c-3.18-2.99-6.57-4.48-11.15-4.48-8.56,0-15.42,7.56-15.42,20.1s6.07,20.4,15.13,20.4c5.28,0,9.36-2.09,12.44-5.37l8.06,9.16c-5.67,6.47-12.84,9.55-21,9.55-16.52,0-30.45-11.25-30.45-33.14Z" fill="#f7f8f5"/><path d="M958,155.68h41v12.94h-25.48v12.14h21.8v12.94h-21.8v13.83h26.47v12.94h-42v-64.79Z" fill="#f7f8f5"/></svg>